<svg width="1920" height="600" viewBox="0 0 1920 600" fill="none" xmlns="http://www.w3.org/2000/svg">
  <defs>
    <linearGradient id="gradBanner" x1="0%" y1="0%" x2="100%" y2="100%">
      <stop offset="0%" style="stop-color:#667eea;stop-opacity:1" />
      <stop offset="100%" style="stop-color:#764ba2;stop-opacity:1" />
    </linearGradient>
    <filter id="shadowBanner">
      <feDropShadow dx="0" dy="4" stdDeviation="12" flood-opacity="0.4"/>
    </filter>
    <filter id="glow">
      <feGaussianBlur stdDeviation="4" result="coloredBlur"/>
      <feMerge>
        <feMergeNode in="coloredBlur"/>
        <feMergeNode in="SourceGraphic"/>
      </feMerge>
    </filter>
  </defs>
  
  <!-- Background -->
  <rect width="1920" height="600" fill="url(#gradBanner)"/>
  
  <!-- Decorative background pattern -->
  <g opacity="0.1">
    <circle cx="200" cy="100" r="80" fill="white"/>
    <circle cx="1720" cy="500" r="100" fill="white"/>
    <circle cx="1600" cy="150" r="60" fill="white"/>
    <circle cx="300" cy="500" r="70" fill="white"/>
  </g>
  
  <!-- Stylized Balkan map outline (large, background) -->
  <path d="M 150 150 L 250 120 L 350 160 L 450 140 L 550 180 L 620 140 L 720 160 L 800 200 L 830 250 L 850 320 L 830 380 L 780 430 L 700 460 L 620 440 L 550 460 L 470 480 L 390 460 L 310 440 L 230 390 L 170 320 L 140 250 L 130 200 Z" 
        fill="none" 
        stroke="white" 
        stroke-width="3" 
        opacity="0.15"/>
  
  <!-- Central play button -->
  <g transform="translate(960, 300)">
    <circle cx="0" cy="0" r="100" fill="white" opacity="0.95" filter="url(#shadowBanner)"/>
    <path d="M -25 -40 L -25 40 L 45 0 Z" fill="url(#gradBanner)"/>
  </g>
  
  <!-- Main title "BALKAN ON DEMAND" -->
  <text x="1200" y="260" font-family="Arial, sans-serif" font-size="90" font-weight="bold" fill="white" filter="url(#glow)">BALKAN</text>
  <text x="1200" y="350" font-family="Arial, sans-serif" font-size="90" font-weight="bold" fill="white" filter="url(#glow)">ON DEMAND</text>
  
  <!-- Subtitle -->
  <text x="1200" y="400" font-family="Arial, sans-serif" font-size="28" font-weight="normal" fill="white" opacity="0.8">Direct HD Streams • Ex-Yu Content</text>
  
  <!-- Feature badges -->
  <g transform="translate(1200, 440)">
    <!-- Badge 1 -->
    <rect x="0" y="0" width="140" height="40" rx="20" fill="white" opacity="0.2"/>
    <text x="70" y="27" font-family="Arial, sans-serif" font-size="16" font-weight="600" fill="white" text-anchor="middle">🎬 Movies</text>
    
    <!-- Badge 2 -->
    <rect x="160" y="0" width="140" height="40" rx="20" fill="white" opacity="0.2"/>
    <text x="230" y="27" font-family="Arial, sans-serif" font-size="16" font-weight="600" fill="white" text-anchor="middle">📺 Series</text>
    
    <!-- Badge 3 -->
    <rect x="320" y="0" width="140" height="40" rx="20" fill="white" opacity="0.2"/>
    <text x="390" y="27" font-family="Arial, sans-serif" font-size="16" font-weight="600" fill="white" text-anchor="middle">⚡ Fast</text>
  </g>
  
  <!-- Decorative lines on left side -->
  <line x1="100" y1="100" x2="850" y2="100" stroke="white" stroke-width="2" opacity="0.3"/>
  <line x1="100" y1="500" x2="850" y2="500" stroke="white" stroke-width="2" opacity="0.3"/>
  
  <!-- Small branding at bottom left -->
  <text x="100" y="560" font-family="Arial, sans-serif" font-size="18" font-weight="normal" fill="white" opacity="0.6">Powered by Cloudflare CDN</text>
</svg>
