<svg width="128" height="128" viewBox="0 0 128 128" fill="none" xmlns="http://www.w3.org/2000/svg">
  <defs>
    <linearGradient id="grad128" x1="0%" y1="0%" x2="100%" y2="100%">
      <stop offset="0%" style="stop-color:#667eea;stop-opacity:1" />
      <stop offset="100%" style="stop-color:#764ba2;stop-opacity:1" />
    </linearGradient>
    <filter id="shadow128">
      <feDropShadow dx="0" dy="2" stdDeviation="4" flood-opacity="0.3"/>
    </filter>
  </defs>
  
  <!-- Background -->
  <rect width="128" height="128" rx="16" fill="url(#grad128)"/>
  
  <!-- Play button circle -->
  <circle cx="64" cy="64" r="35" fill="white" opacity="0.95" filter="url(#shadow128)"/>
  
  <!-- Play triangle -->
  <path d="M 55 47.5 L 55 80.5 L 80 64 Z" fill="url(#grad128)"/>
  
  <!-- Balkan region outline (stylized map) - scaled down -->
  <path d="M 30 25 L 40 22.5 L 50 27.5 L 60 25 L 70 30 L 75 25 L 85 27.5 L 92.5 32.5 L 95 40 L 97.5 50 L 95 57.5 L 90 62.5 L 82.5 65 L 75 62.5 L 70 65 L 62.5 67.5 L 55 65 L 47.5 62.5 L 40 57.5 L 35 50 L 32.5 42.5 L 30 35 Z" 
        fill="none" 
        stroke="white" 
        stroke-width="1.5" 
        opacity="0.3"/>
  
  <!-- Text "BOD" -->
  <text x="64" y="110" font-family="Arial, sans-serif" font-size="16" font-weight="bold" fill="white" text-anchor="middle" opacity="0.9">BOD</text>
</svg>
